<mxfile host="65bd71144e">
    <diagram id="NwwMibQ1yu2yw5W7UFah" name="Page-1">
        <mxGraphModel dx="402" dy="585" grid="1" gridSize="10" guides="1" tooltips="1" connect="1" arrows="1" fold="1" page="1" pageScale="1" pageWidth="850" pageHeight="1100" math="0" shadow="0">
            <root>
                <mxCell id="0"/>
                <mxCell id="1" parent="0"/>
                <mxCell id="12" value="" style="edgeStyle=none;html=1;fontFamily=Tahoma;" edge="1" parent="1" source="2" target="11">
                    <mxGeometry relative="1" as="geometry"/>
                </mxCell>
                <mxCell id="14" style="edgeStyle=none;html=1;entryX=0;entryY=0.5;entryDx=0;entryDy=0;fontFamily=Tahoma;" edge="1" parent="1" source="2" target="13">
                    <mxGeometry relative="1" as="geometry"/>
                </mxCell>
                <mxCell id="2" value="TransacciÃ³n" style="shape=image;verticalLabelPosition=bottom;labelBackgroundColor=default;verticalAlign=top;aspect=fixed;imageAspect=0;image=https://static.thenounproject.com/png/1588868-200.png;fontFamily=Tahoma;imageBorder=none;imageBackground=default;" vertex="1" parent="1">
                    <mxGeometry x="110" y="240" width="100" height="100" as="geometry"/>
                </mxCell>
                <mxCell id="11" value="Transacciones aprobadas" style="whiteSpace=wrap;html=1;verticalAlign=middle;labelBackgroundColor=default;fillColor=none;strokeColor=#82b366;fontColor=#4D9900;fontFamily=Tahoma;" vertex="1" parent="1">
                    <mxGeometry x="280" y="230" width="120" height="60" as="geometry"/>
                </mxCell>
                <mxCell id="13" value="Transacciones rechazadas" style="whiteSpace=wrap;html=1;verticalAlign=middle;labelBackgroundColor=default;fillColor=none;strokeColor=#b85450;fontColor=#CC0000;fontFamily=Tahoma;" vertex="1" parent="1">
                    <mxGeometry x="280" y="300" width="120" height="60" as="geometry"/>
                </mxCell>
            </root>
        </mxGraphModel>
    </diagram>
</mxfile>